<?xml version="1.0" encoding="utf-8"?>
<!-- Generator: Adobe Illustrator 26.1.0, SVG Export Plug-In . SVG Version: 6.00 Build 0)  -->
<svg version="1.1" id="Layer_1" xmlns="http://www.w3.org/2000/svg" xmlns:xlink="http://www.w3.org/1999/xlink" x="0px" y="0px"
	 viewBox="0 0 98.3 117.6" style="enable-background:new 0 0 98.3 117.6;" xml:space="preserve">
<style type="text/css">
	.st0{fill:transparent;}
	.st1{fill:#FFFFFF;}
</style>
<g>
	<path id="Path_114_00000020364232245090584050000012617292464454933418_" class="st0" d="M14.5,14.2c19.1-19,49.9-18.9,68.9,0.1
		s18.9,49.9-0.1,68.9l-34.5,34.4L14.4,83.1C-3.9,63.8-3.9,33.5,14.5,14.2z"/>
	<g>
		<path class="st1" d="M18.3,38c1.8-0.4,4.2-0.6,6.9-0.6c2.9,0,5.7,0.4,7.9,2.2c1.7,1.4,2.4,3.5,2.4,5.6c0,2.8-1.4,5.4-4.5,6.8v0.2
			c3.6,1,5.5,4,5.5,7.4c0,2.6-0.8,4.6-2.3,6.1c-1.8,2-5,3.1-10.2,3.1c-2.3,0-4.2-0.1-5.6-0.3V38z M24.4,50.3h1.3
			c2.2,0,3.8-1.8,3.8-4.4c0-2.3-1.1-4-3.6-4c-0.6,0-1.2,0-1.6,0.2V50.3z M24.4,64.1c0.4,0.1,0.8,0.1,1.3,0.1c2.4,0,4.5-1.5,4.5-4.7
			c0-3.1-2.1-4.7-4.5-4.8h-1.3V64.1z"/>
		<path class="st1" d="M46.7,37.5V50H53V37.5h6v31.1h-6v-13h-6.3v13h-6V37.5H46.7z"/>
		<path class="st1" d="M63.8,62.4c1.2,0.7,3.4,1.2,5.1,1.2c2.9,0,4.2-1.5,4.2-3.5c0-2.3-1.4-3.4-4-5.1c-4.2-2.6-5.9-5.9-5.9-8.7
			c0-5,3.3-9.1,9.8-9.1c2,0,4,0.6,4.9,1.1l-1,5.2c-0.9-0.6-2.2-1.1-4-1.1c-2.6,0-3.8,1.6-3.8,3.2c0,1.8,0.9,2.8,4.3,4.8
			c4.1,2.5,5.6,5.6,5.6,8.9c0,5.7-4.2,9.4-10.3,9.4c-2.5,0-4.9-0.6-6-1.2L63.8,62.4z"/>
	</g>
</g>
</svg>
